<?xml version="1.0" encoding="UTF-8"?>
<!DOCTYPE svg PUBLIC "-//W3C//DTD SVG 1.1//EN" "http://www.w3.org/Graphics/SVG/1.1/DTD/svg11.dtd">
<!-- Creator: CorelDRAW 2017 -->
<svg xmlns="http://www.w3.org/2000/svg" xml:space="preserve" width="150px" height="60px" version="1.1" style="shape-rendering:geometricPrecision; text-rendering:geometricPrecision; image-rendering:optimizeQuality; fill-rule:evenodd; clip-rule:evenodd"
viewBox="0 0 150 59.999"
 xmlns:xlink="http://www.w3.org/1999/xlink">
 <defs>
  <style type="text/css">
   <![CDATA[
    .fil0 {fill:#333333;fill-rule:nonzero}
    .fil1 {fill:url(#id0)}
   ]]>
  </style>
  <linearGradient id="id0" gradientUnits="userSpaceOnUse" x1="105.004" y1="24.81" x2="148.892" y2="24.81">
   <stop offset="0" style="stop-opacity:1; stop-color:#333333"/>
   <stop offset="0.180392" style="stop-opacity:1; stop-color:#254D72"/>
   <stop offset="1" style="stop-opacity:1; stop-color:#1768B2"/>
  </linearGradient>
 </defs>
 <g id="Layer_x0020_1">
  <metadata id="CorelCorpID_0Corel-Layer"/>
  <g id="_1707675924944">
   <polygon class="fil0" points="51.843,49.554 29.318,49.554 0.419,0.066 22.944,0.066 "/>
   <polygon class="fil0" points="88.311,49.547 65.786,49.547 36.886,0.059 59.412,0.059 "/>
   <polygon class="fil0" points="95.485,0.063 73.348,0.063 95.485,37.972 "/>
   <path class="fil1" d="M105.003 49.532l43.997 0c0.117,-20.918 -1.786,-30.436 -20.823,-30.436l0 0c0,-1.546 0.923,-5.825 0,-9.519l0 0c-1.889,-7.554 -7.732,-9.487 -9.798,-9.487l0 0c-0.017,0 -0.033,0 -0.05,0l0 0 -3.807 0 -9.519 0 0 49.442z"/>
   <polygon class="fil0" points="96.618,58.919 95.313,58.919 94.11,54.197 94.087,54.197 92.885,58.919 91.58,58.919 90.036,53.084 91.08,53.084 92.26,57.946 92.294,57.946 93.531,53.084 94.723,53.084 95.982,57.946 96.005,57.946 97.174,53.084 98.173,53.084 "/>
   <path class="fil0" d="M101.702 56.463c0,-0.36 -0.078,-0.651 -0.233,-0.872 -0.155,-0.221 -0.399,-0.331 -0.732,-0.331 -0.196,0 -0.361,0.042 -0.493,0.127 -0.133,0.084 -0.24,0.188 -0.324,0.311 -0.083,0.122 -0.144,0.254 -0.181,0.393 -0.038,0.139 -0.057,0.263 -0.057,0.372l2.02 0zm-2.043 0.568c0,0.2 0.025,0.385 0.074,0.556 0.049,0.171 0.121,0.32 0.216,0.447 0.094,0.128 0.213,0.227 0.357,0.299 0.144,0.072 0.31,0.108 0.5,0.108 0.257,0 0.461,-0.058 0.612,-0.173 0.151,-0.116 0.273,-0.253 0.363,-0.412l0.726 0.304c-0.151,0.263 -0.368,0.479 -0.652,0.647 -0.283,0.168 -0.645,0.252 -1.083,0.252 -0.651,0 -1.162,-0.194 -1.533,-0.581 -0.37,-0.388 -0.556,-0.927 -0.556,-1.619 0,-0.33 0.049,-0.631 0.148,-0.903 0.098,-0.272 0.238,-0.505 0.42,-0.7 0.181,-0.195 0.401,-0.347 0.658,-0.454 0.257,-0.107 0.541,-0.16 0.851,-0.16 0.348,0 0.643,0.053 0.885,0.16 0.242,0.107 0.441,0.253 0.596,0.437 0.155,0.184 0.266,0.401 0.335,0.651 0.068,0.25 0.102,0.518 0.102,0.803l0 0.338 -3.019 0z"/>
   <polygon class="fil0" points="103.983,52.689 104.959,52.689 104.959,58.919 103.983,58.919 "/>
   <polygon class="fil0" points="106.615,52.689 107.592,52.689 107.592,58.919 106.615,58.919 "/>
   <path class="fil0" d="M111.507 55.564c-0.099,-0.104 -0.226,-0.19 -0.381,-0.259 -0.155,-0.069 -0.338,-0.103 -0.55,-0.103 -0.22,0 -0.401,0.056 -0.545,0.169 -0.144,0.113 -0.215,0.265 -0.215,0.457 0,0.193 0.073,0.333 0.221,0.421 0.147,0.088 0.372,0.173 0.675,0.255 0.159,0.044 0.316,0.098 0.471,0.161 0.155,0.063 0.295,0.144 0.42,0.243 0.125,0.099 0.225,0.216 0.301,0.35 0.075,0.135 0.113,0.295 0.113,0.482 0,0.214 -0.043,0.404 -0.13,0.569 -0.087,0.165 -0.208,0.302 -0.363,0.412 -0.155,0.11 -0.339,0.194 -0.551,0.251 -0.212,0.058 -0.442,0.087 -0.692,0.087 -0.34,0 -0.651,-0.051 -0.931,-0.153 -0.28,-0.101 -0.514,-0.237 -0.703,-0.408l0.567 -0.453c0.129,0.115 0.28,0.216 0.454,0.301 0.174,0.085 0.39,0.128 0.647,0.128 0.242,0 0.433,-0.064 0.573,-0.19 0.14,-0.126 0.21,-0.291 0.21,-0.495 0,-0.115 -0.026,-0.214 -0.079,-0.296 -0.053,-0.083 -0.125,-0.153 -0.216,-0.21 -0.091,-0.058 -0.199,-0.107 -0.323,-0.148 -0.125,-0.042 -0.26,-0.082 -0.403,-0.12 -0.144,-0.038 -0.286,-0.085 -0.426,-0.14 -0.14,-0.055 -0.267,-0.128 -0.38,-0.219 -0.113,-0.09 -0.204,-0.2 -0.272,-0.329 -0.068,-0.129 -0.103,-0.287 -0.103,-0.474 0,-0.182 0.044,-0.346 0.131,-0.494 0.087,-0.149 0.206,-0.276 0.357,-0.384 0.152,-0.107 0.33,-0.189 0.534,-0.247 0.204,-0.057 0.423,-0.086 0.658,-0.086 0.341,0 0.633,0.042 0.88,0.127 0.245,0.086 0.448,0.197 0.607,0.334l-0.556 0.461z"/>
   <path class="fil0" d="M118.803 57.266c0,-0.198 -0.044,-0.368 -0.13,-0.508 -0.087,-0.141 -0.199,-0.254 -0.335,-0.34 -0.136,-0.085 -0.289,-0.147 -0.46,-0.186 -0.17,-0.038 -0.339,-0.057 -0.505,-0.057l-0.942 0 0 2.125 0.988 0c0.188,0 0.368,-0.02 0.539,-0.061 0.17,-0.042 0.317,-0.104 0.442,-0.186 0.125,-0.083 0.223,-0.189 0.295,-0.319 0.072,-0.13 0.108,-0.285 0.108,-0.468zm-0.215 -2.629c0,-0.176 -0.038,-0.324 -0.114,-0.442 -0.076,-0.119 -0.174,-0.216 -0.295,-0.29 -0.121,-0.075 -0.259,-0.127 -0.414,-0.157 -0.156,-0.031 -0.316,-0.046 -0.483,-0.046l-0.851 0 0 1.887 0.874 0c0.151,0 0.304,-0.018 0.46,-0.054 0.155,-0.035 0.293,-0.091 0.414,-0.165 0.121,-0.074 0.219,-0.173 0.295,-0.294 0.076,-0.121 0.114,-0.267 0.114,-0.439zm-0.148 1.216c0.143,0.022 0.297,0.066 0.459,0.132 0.163,0.066 0.313,0.158 0.449,0.276 0.136,0.118 0.25,0.264 0.34,0.437 0.091,0.173 0.137,0.378 0.137,0.614 0,0.302 -0.069,0.555 -0.205,0.758 -0.137,0.203 -0.311,0.368 -0.524,0.494 -0.212,0.127 -0.447,0.217 -0.705,0.272 -0.258,0.055 -0.508,0.083 -0.751,0.083l-2.173 0 0 -5.835 1.929 0c0.227,0 0.467,0.021 0.721,0.062 0.253,0.041 0.486,0.117 0.697,0.226 0.212,0.11 0.386,0.259 0.522,0.446 0.137,0.186 0.205,0.423 0.205,0.708 0,0.193 -0.031,0.36 -0.091,0.503 -0.061,0.143 -0.142,0.268 -0.244,0.375 -0.102,0.107 -0.219,0.196 -0.352,0.267 -0.132,0.072 -0.271,0.127 -0.414,0.166l0 0.016z"/>
   <path class="fil0" d="M122.548 54.881c0.219,-0.16 0.473,-0.239 0.76,-0.239 0.061,0 0.106,0.003 0.137,0.008l-0.046 0.733c-0.03,-0.005 -0.061,-0.009 -0.091,-0.012 -0.03,-0.003 -0.064,-0.004 -0.102,-0.004 -0.181,0 -0.342,0.043 -0.482,0.128 -0.14,0.085 -0.258,0.196 -0.352,0.333 -0.095,0.137 -0.166,0.293 -0.215,0.466 -0.05,0.173 -0.074,0.35 -0.074,0.531l0 2.094 -0.976 0 0 -3.091c0,-0.164 -0.004,-0.342 -0.012,-0.531 -0.007,-0.19 -0.019,-0.361 -0.034,-0.515l0.92 0c0.022,0.137 0.039,0.28 0.051,0.428 0.011,0.149 0.017,0.291 0.017,0.429l0.022 0c0.099,-0.346 0.257,-0.599 0.477,-0.758z"/>
   <path class="fil0" d="M127.076 56.854c0,-0.224 -0.021,-0.434 -0.063,-0.628 -0.041,-0.195 -0.107,-0.363 -0.198,-0.506 -0.091,-0.142 -0.205,-0.255 -0.341,-0.337 -0.136,-0.082 -0.295,-0.124 -0.476,-0.124 -0.182,0 -0.341,0.042 -0.477,0.124 -0.136,0.082 -0.248,0.195 -0.335,0.337 -0.087,0.143 -0.151,0.311 -0.193,0.506 -0.042,0.194 -0.062,0.404 -0.062,0.628 0,0.225 0.02,0.433 0.062,0.625 0.042,0.192 0.106,0.359 0.193,0.501 0.087,0.143 0.199,0.255 0.335,0.338 0.136,0.082 0.295,0.123 0.477,0.123 0.189,0 0.352,-0.041 0.488,-0.123 0.136,-0.083 0.247,-0.195 0.334,-0.338 0.087,-0.142 0.152,-0.309 0.193,-0.501 0.042,-0.192 0.063,-0.4 0.063,-0.625zm0.998 0.004c0,0.33 -0.047,0.63 -0.142,0.899 -0.094,0.269 -0.23,0.5 -0.408,0.692 -0.178,0.192 -0.395,0.342 -0.652,0.449 -0.258,0.107 -0.549,0.161 -0.874,0.161 -0.318,0 -0.606,-0.054 -0.863,-0.161 -0.257,-0.107 -0.475,-0.257 -0.653,-0.449 -0.177,-0.192 -0.313,-0.423 -0.408,-0.692 -0.095,-0.269 -0.142,-0.569 -0.142,-0.899 0,-0.329 0.047,-0.631 0.142,-0.906 0.095,-0.275 0.229,-0.508 0.403,-0.7 0.174,-0.193 0.389,-0.343 0.647,-0.449 0.257,-0.108 0.548,-0.161 0.874,-0.161 0.325,0 0.616,0.053 0.874,0.161 0.257,0.106 0.474,0.256 0.652,0.449 0.178,0.192 0.314,0.425 0.408,0.7 0.095,0.275 0.142,0.577 0.142,0.906z"/>
   <path class="fil0" d="M131.116 58.993c-0.137,0.021 -0.273,0.033 -0.409,0.033 -0.439,0 -0.751,-0.102 -0.936,-0.305 -0.186,-0.203 -0.278,-0.486 -0.278,-0.849l0 -2.521 -0.726 0 0 -0.569 0.714 0 0 -1.105 0.942 0 0 1.105 1.01 0 0 0.569 -1.01 0 0 2.374c0,0.242 0.049,0.416 0.148,0.523 0.098,0.106 0.245,0.16 0.442,0.16 0.069,0 0.14,-0.006 0.216,-0.018 0.076,-0.012 0.14,-0.026 0.193,-0.04l0.023 0.561c-0.084,0.032 -0.193,0.06 -0.329,0.082z"/>
   <path class="fil0" d="M133.385 58.919l-0.976 0 0 -6.23 0.976 0 0 2.793 0.022 0c0.099,-0.23 0.269,-0.428 0.511,-0.593 0.242,-0.165 0.541,-0.247 0.897,-0.247 0.302,0 0.55,0.046 0.743,0.14 0.193,0.093 0.341,0.217 0.443,0.371 0.102,0.153 0.172,0.329 0.21,0.527 0.037,0.198 0.056,0.399 0.056,0.601l0 2.638 -0.975 0 0 -2.643c0,-0.116 -0.008,-0.235 -0.023,-0.355 -0.016,-0.122 -0.051,-0.231 -0.108,-0.331 -0.057,-0.099 -0.139,-0.179 -0.244,-0.239 -0.106,-0.061 -0.25,-0.091 -0.431,-0.091 -0.159,0 -0.307,0.031 -0.443,0.095 -0.136,0.063 -0.253,0.151 -0.352,0.264 -0.098,0.113 -0.174,0.248 -0.226,0.405 -0.054,0.157 -0.08,0.329 -0.08,0.516l0 2.379z"/>
   <path class="fil0" d="M140.58 56.463c0,-0.36 -0.078,-0.651 -0.233,-0.872 -0.155,-0.221 -0.399,-0.331 -0.732,-0.331 -0.197,0 -0.361,0.042 -0.494,0.127 -0.132,0.084 -0.24,0.188 -0.323,0.311 -0.084,0.122 -0.144,0.254 -0.182,0.393 -0.037,0.139 -0.056,0.263 -0.056,0.372l2.02 0zm-2.043 0.568c0,0.2 0.024,0.385 0.074,0.556 0.049,0.171 0.12,0.32 0.215,0.447 0.095,0.128 0.214,0.227 0.358,0.299 0.143,0.072 0.31,0.108 0.499,0.108 0.257,0 0.461,-0.058 0.613,-0.173 0.151,-0.116 0.272,-0.253 0.363,-0.412l0.726 0.304c-0.151,0.263 -0.369,0.479 -0.652,0.647 -0.284,0.168 -0.645,0.252 -1.084,0.252 -0.651,0 -1.161,-0.194 -1.532,-0.581 -0.371,-0.388 -0.556,-0.927 -0.556,-1.619 0,-0.33 0.049,-0.631 0.148,-0.903 0.098,-0.272 0.238,-0.505 0.419,-0.7 0.182,-0.195 0.401,-0.347 0.658,-0.454 0.257,-0.107 0.541,-0.16 0.852,-0.16 0.347,0 0.642,0.053 0.884,0.16 0.243,0.107 0.442,0.253 0.596,0.437 0.155,0.184 0.267,0.401 0.335,0.651 0.068,0.25 0.102,0.518 0.102,0.803l0 0.338 -3.018 0z"/>
   <path class="fil0" d="M144.325 54.881c0.219,-0.16 0.472,-0.239 0.76,-0.239 0.06,0 0.106,0.003 0.136,0.008l-0.046 0.733c-0.03,-0.005 -0.06,-0.009 -0.09,-0.012 -0.031,-0.003 -0.065,-0.004 -0.102,-0.004 -0.182,0 -0.343,0.043 -0.483,0.128 -0.14,0.085 -0.257,0.196 -0.351,0.333 -0.095,0.137 -0.167,0.293 -0.216,0.466 -0.049,0.173 -0.074,0.35 -0.074,0.531l0 2.094 -0.976 0 0 -3.091c0,-0.164 -0.004,-0.342 -0.011,-0.531 -0.008,-0.19 -0.019,-0.361 -0.034,-0.515l0.919 0c0.023,0.137 0.04,0.28 0.051,0.428 0.011,0.149 0.017,0.291 0.017,0.429l0.023 0c0.098,-0.346 0.257,-0.599 0.477,-0.758z"/>
   <path class="fil0" d="M148.353 55.564c-0.099,-0.104 -0.225,-0.19 -0.38,-0.259 -0.156,-0.069 -0.339,-0.103 -0.551,-0.103 -0.219,0 -0.401,0.056 -0.544,0.169 -0.144,0.113 -0.216,0.265 -0.216,0.457 0,0.193 0.074,0.333 0.221,0.421 0.148,0.088 0.373,0.173 0.675,0.255 0.159,0.044 0.316,0.098 0.471,0.161 0.155,0.063 0.296,0.144 0.42,0.243 0.125,0.099 0.225,0.216 0.301,0.35 0.075,0.135 0.113,0.295 0.113,0.482 0,0.214 -0.043,0.404 -0.13,0.569 -0.087,0.165 -0.208,0.302 -0.363,0.412 -0.155,0.11 -0.339,0.194 -0.551,0.251 -0.211,0.058 -0.442,0.087 -0.692,0.087 -0.34,0 -0.651,-0.051 -0.93,-0.153 -0.28,-0.101 -0.515,-0.237 -0.704,-0.408l0.568 -0.453c0.128,0.115 0.279,0.216 0.454,0.301 0.173,0.085 0.389,0.128 0.646,0.128 0.242,0 0.433,-0.064 0.573,-0.19 0.14,-0.126 0.21,-0.291 0.21,-0.495 0,-0.115 -0.026,-0.214 -0.079,-0.296 -0.053,-0.083 -0.125,-0.153 -0.216,-0.21 -0.091,-0.058 -0.198,-0.107 -0.323,-0.148 -0.125,-0.042 -0.259,-0.082 -0.403,-0.12 -0.144,-0.038 -0.286,-0.085 -0.425,-0.14 -0.141,-0.055 -0.267,-0.128 -0.381,-0.219 -0.113,-0.09 -0.204,-0.2 -0.272,-0.329 -0.068,-0.129 -0.102,-0.287 -0.102,-0.474 0,-0.182 0.043,-0.346 0.131,-0.494 0.086,-0.149 0.205,-0.276 0.357,-0.384 0.151,-0.107 0.329,-0.189 0.533,-0.247 0.204,-0.057 0.424,-0.086 0.658,-0.086 0.341,0 0.634,0.042 0.879,0.127 0.247,0.086 0.449,0.197 0.608,0.334l-0.556 0.461z"/>
  </g>
 </g>
</svg>
